<mxfile host="65bd71144e">
    <diagram id="ri0XOa9a1FYvauG0mSha" name="Page-1">
        <mxGraphModel dx="775" dy="348" grid="1" gridSize="10" guides="1" tooltips="1" connect="1" arrows="1" fold="1" page="1" pageScale="1" pageWidth="850" pageHeight="1100" math="0" shadow="0">
            <root>
                <mxCell id="0"/>
                <mxCell id="1" parent="0"/>
                <mxCell id="9" value="3" style="group" parent="1" vertex="1" connectable="0">
                    <mxGeometry x="20" y="30" width="240" height="60" as="geometry"/>
                </mxCell>
                <mxCell id="2" value="15" style="whiteSpace=wrap;html=1;aspect=fixed;" parent="9" vertex="1">
                    <mxGeometry x="40" width="40" height="40" as="geometry"/>
                </mxCell>
                <mxCell id="3" value="3" style="whiteSpace=wrap;html=1;aspect=fixed;" parent="9" vertex="1">
                    <mxGeometry width="40" height="40" as="geometry"/>
                </mxCell>
                <mxCell id="4" value="61" style="whiteSpace=wrap;html=1;aspect=fixed;" parent="9" vertex="1">
                    <mxGeometry x="80" width="40" height="40" as="geometry"/>
                </mxCell>
                <mxCell id="6" value="11" style="whiteSpace=wrap;html=1;aspect=fixed;" parent="9" vertex="1">
                    <mxGeometry x="120" width="40" height="40" as="geometry"/>
                </mxCell>
                <mxCell id="7" value="7" style="whiteSpace=wrap;html=1;aspect=fixed;" parent="9" vertex="1">
                    <mxGeometry x="160" width="40" height="40" as="geometry"/>
                </mxCell>
                <mxCell id="8" value="9" style="whiteSpace=wrap;html=1;aspect=fixed;" parent="9" vertex="1">
                    <mxGeometry x="200" width="40" height="40" as="geometry"/>
                </mxCell>
                <mxCell id="52" value="" style="endArrow=classic;html=1;exitX=0.25;exitY=1;exitDx=0;exitDy=0;entryX=0.5;entryY=1;entryDx=0;entryDy=0;" parent="9" source="3" target="2" edge="1">
                    <mxGeometry relative="1" as="geometry">
                        <mxPoint x="270" y="50" as="sourcePoint"/>
                        <mxPoint x="30" y="50" as="targetPoint"/>
                        <Array as="points">
                            <mxPoint x="20" y="90"/>
                            <mxPoint x="60" y="90"/>
                        </Array>
                    </mxGeometry>
                </mxCell>
                <mxCell id="57" value="1" style="edgeLabel;html=1;align=center;verticalAlign=middle;resizable=0;points=[];" parent="52" vertex="1" connectable="0">
                    <mxGeometry x="-0.0333" relative="1" as="geometry">
                        <mxPoint as="offset"/>
                    </mxGeometry>
                </mxCell>
                <mxCell id="55" value="" style="endArrow=classic;html=1;exitX=0.25;exitY=1;exitDx=0;exitDy=0;entryX=0.5;entryY=1;entryDx=0;entryDy=0;exitPerimeter=0;" parent="9" source="7" target="4" edge="1">
                    <mxGeometry relative="1" as="geometry">
                        <mxPoint x="280" y="60" as="sourcePoint"/>
                        <mxPoint x="40" y="60" as="targetPoint"/>
                        <Array as="points">
                            <mxPoint x="180" y="110"/>
                            <mxPoint x="100" y="110"/>
                        </Array>
                    </mxGeometry>
                </mxCell>
                <mxCell id="72" value="2" style="edgeLabel;html=1;align=center;verticalAlign=middle;resizable=0;points=[];" parent="55" vertex="1" connectable="0">
                    <mxGeometry x="-0.0965" y="1" relative="1" as="geometry">
                        <mxPoint as="offset"/>
                    </mxGeometry>
                </mxCell>
                <mxCell id="60" value="" style="endArrow=classic;html=1;exitX=0.25;exitY=1;exitDx=0;exitDy=0;entryX=0.5;entryY=1;entryDx=0;entryDy=0;" parent="9" source="8" target="6" edge="1">
                    <mxGeometry relative="1" as="geometry">
                        <mxPoint x="290" y="70" as="sourcePoint"/>
                        <mxPoint x="50" y="70" as="targetPoint"/>
                        <Array as="points">
                            <mxPoint x="220" y="130"/>
                            <mxPoint x="140" y="130"/>
                        </Array>
                    </mxGeometry>
                </mxCell>
                <mxCell id="71" value="2" style="edgeLabel;html=1;align=center;verticalAlign=middle;resizable=0;points=[];" parent="60" vertex="1" connectable="0">
                    <mxGeometry x="-0.1015" relative="1" as="geometry">
                        <mxPoint as="offset"/>
                    </mxGeometry>
                </mxCell>
                <mxCell id="63" value="" style="endArrow=classic;html=1;exitX=0.25;exitY=1;exitDx=0;exitDy=0;entryX=0.5;entryY=1;entryDx=0;entryDy=0;" parent="9" source="2" target="7" edge="1">
                    <mxGeometry relative="1" as="geometry">
                        <mxPoint x="300" y="80" as="sourcePoint"/>
                        <mxPoint x="60" y="80" as="targetPoint"/>
                        <Array as="points">
                            <mxPoint x="60" y="150"/>
                            <mxPoint x="180" y="150"/>
                        </Array>
                    </mxGeometry>
                </mxCell>
                <mxCell id="65" value="3" style="edgeLabel;html=1;align=center;verticalAlign=middle;resizable=0;points=[];" parent="63" vertex="1" connectable="0">
                    <mxGeometry x="-0.0075" y="-3" relative="1" as="geometry">
                        <mxPoint as="offset"/>
                    </mxGeometry>
                </mxCell>
                <mxCell id="66" value="" style="endArrow=classic;html=1;exitX=0.25;exitY=1;exitDx=0;exitDy=0;entryX=0.5;entryY=1;entryDx=0;entryDy=0;" parent="9" source="6" target="8" edge="1">
                    <mxGeometry relative="1" as="geometry">
                        <mxPoint x="310" y="90" as="sourcePoint"/>
                        <mxPoint x="70" y="90" as="targetPoint"/>
                        <Array as="points">
                            <mxPoint x="140" y="170"/>
                            <mxPoint x="220" y="170"/>
                        </Array>
                    </mxGeometry>
                </mxCell>
                <mxCell id="68" value="2" style="edgeLabel;html=1;align=center;verticalAlign=middle;resizable=0;points=[];" parent="66" vertex="1" connectable="0">
                    <mxGeometry x="-0.0028" y="-2" relative="1" as="geometry">
                        <mxPoint as="offset"/>
                    </mxGeometry>
                </mxCell>
                <mxCell id="42" value="2" style="whiteSpace=wrap;html=1;aspect=fixed;" parent="1" vertex="1">
                    <mxGeometry x="260" y="30" width="40" height="40" as="geometry"/>
                </mxCell>
                <mxCell id="47" value="" style="endArrow=classic;html=1;entryX=0.5;entryY=1;entryDx=0;entryDy=0;" parent="1" target="3" edge="1">
                    <mxGeometry relative="1" as="geometry">
                        <mxPoint x="270" y="70" as="sourcePoint"/>
                        <mxPoint x="100" y="130" as="targetPoint"/>
                        <Array as="points">
                            <mxPoint x="280" y="100"/>
                            <mxPoint x="40" y="100"/>
                        </Array>
                    </mxGeometry>
                </mxCell>
                <mxCell id="58" value="6" style="edgeLabel;html=1;align=center;verticalAlign=middle;resizable=0;points=[];" parent="47" vertex="1" connectable="0">
                    <mxGeometry x="0.1156" y="2" relative="1" as="geometry">
                        <mxPoint as="offset"/>
                    </mxGeometry>
                </mxCell>
                <mxCell id="69" value="4" style="endArrow=classic;html=1;exitX=0.25;exitY=1;exitDx=0;exitDy=0;entryX=0.5;entryY=1;entryDx=0;entryDy=0;" parent="1" source="4" target="42" edge="1">
                    <mxGeometry relative="1" as="geometry">
                        <mxPoint x="340" y="130" as="sourcePoint"/>
                        <mxPoint x="100" y="130" as="targetPoint"/>
                        <Array as="points">
                            <mxPoint x="120" y="220"/>
                            <mxPoint x="280" y="220"/>
                        </Array>
                    </mxGeometry>
                </mxCell>
            </root>
        </mxGraphModel>
    </diagram>
</mxfile>